<svg width="40" height="41" viewBox="0 0 40 41" fill="none" xmlns="http://www.w3.org/2000/svg">
<path fill-rule="evenodd" clip-rule="evenodd" d="M22.3386 27.2469C24.634 27.2469 26.5024 29.102 26.5024 31.3822V37.2466C26.5024 37.7366 26.8951 38.1293 27.3984 38.1407H31.0323C33.8958 38.1407 36.2237 35.8415 36.2237 33.016V16.3836C36.2103 15.4113 35.7471 14.4962 34.952 13.888L22.3824 3.86358C20.6952 2.52712 18.3349 2.52712 16.6419 3.8674L4.15808 13.8842C3.33256 14.5114 2.86927 15.4266 2.85974 16.4161V33.016C2.85974 35.8415 5.18759 38.1407 8.05117 38.1407H11.7193C12.236 38.1407 12.6554 37.7308 12.6554 37.2275C12.6554 37.1169 12.6687 37.0064 12.6916 36.9015V31.3822C12.6916 29.1153 14.5486 27.2622 16.8268 27.2469H22.3386ZM31.0323 41H27.3642C25.2632 40.9504 23.6426 39.3013 23.6426 37.2461V31.3817C23.6426 30.6781 23.0573 30.1062 22.3386 30.1062H16.8364C16.1329 30.11 15.5514 30.6839 15.5514 31.3817V37.227C15.5514 37.37 15.5323 37.5073 15.4923 37.6369C15.2864 39.5244 13.6735 41 11.7193 41H8.0512C3.61093 41 0 37.4177 0 33.0155V16.4022C0.0190651 14.5071 0.892247 12.7722 2.4003 11.6302L14.8593 1.63054C17.6028 -0.542879 21.4254 -0.542879 24.1631 1.62673L36.7118 11.6359C38.1855 12.7588 39.0587 14.49 39.0835 16.3622V33.0155C39.0835 37.4177 35.4725 41 31.0323 41Z" fill="#5E84E7"/>
</svg>
