<svg width="24" height="24" viewBox="0 0 24 24" fill="none" xmlns="http://www.w3.org/2000/svg">
<path fill-rule="evenodd" clip-rule="evenodd" d="M6.47408 17.8834C6.75907 17.8834 7.04406 17.917 7.32282 17.9865C8.1641 18.1973 8.89462 18.7208 9.3277 19.4239C9.60896 19.8651 9.76452 20.3806 9.7695 20.9064C9.7695 21.6593 10.4191 22.2627 11.2181 22.2627H12.7774C13.5727 22.2627 14.2223 21.6627 14.226 20.9226C14.221 20.1049 14.5645 19.3277 15.193 18.7428C15.8128 18.166 16.6789 17.8197 17.5451 17.8428C18.1126 17.8556 18.6589 17.998 19.1405 18.2529C19.8337 18.6223 20.7185 18.4023 21.1193 17.7652L21.9456 16.4831C22.1298 16.1877 22.1833 15.8171 22.085 15.4754C21.9879 15.1337 21.744 14.8372 21.4155 14.6623C20.6464 14.25 20.0975 13.5851 19.8698 12.7883C19.6445 12.0064 19.7677 11.1528 20.2071 10.4498C20.4933 9.98647 20.9127 9.59614 21.4155 9.32743C22.09 8.96026 22.3264 8.13907 21.9344 7.49972C21.9182 7.47423 21.9033 7.44759 21.8909 7.4198L21.1616 6.24302C20.7646 5.60019 19.881 5.37897 19.1878 5.74613C18.4386 6.15847 17.5476 6.27661 16.6914 6.06697C15.8364 5.8608 15.1196 5.35696 14.6728 4.6458C14.3866 4.20103 14.231 3.6833 14.226 3.1563C14.2372 2.76018 14.0879 2.40459 13.8166 2.14399C13.5465 1.88454 13.167 1.73745 12.7774 1.73745H11.2181C10.8323 1.73745 10.4714 1.87759 10.1988 2.13009C9.92755 2.38375 9.77945 2.7208 9.78194 3.07985C9.75581 4.77321 8.26864 6.13646 6.46786 6.13646C5.89041 6.13067 5.33412 5.98589 4.85126 5.71718C4.17301 5.35812 3.28693 5.57934 2.88994 6.22217L2.04742 7.5113C1.66163 8.13443 1.89808 8.95795 2.58504 9.32974C3.60428 9.87875 4.24021 10.9026 4.24021 12.0007C4.24021 13.0987 3.60428 14.1214 2.58255 14.6716C1.89932 15.0399 1.66287 15.8588 2.05862 16.4958L2.84389 17.756C3.03803 18.0814 3.35538 18.3166 3.72251 18.4127C4.08839 18.5077 4.4916 18.4671 4.82761 18.2934C5.32168 18.0235 5.89663 17.8834 6.47408 17.8834M12.7776 24H11.2183C9.39009 24 7.90293 22.6171 7.90293 20.9156C7.90044 20.706 7.83572 20.4882 7.71501 20.2994C7.51962 19.982 7.20352 19.755 6.83888 19.6647C6.47674 19.5743 6.07974 19.6241 5.75369 19.8002C4.97215 20.2056 4.05247 20.304 3.21119 20.084C2.37116 19.8627 1.64562 19.3253 1.22 18.613L0.442193 17.3656C-0.467531 15.8969 0.073823 14.0148 1.64935 13.1669C2.09612 12.9272 2.37365 12.4801 2.37365 12.0006C2.37365 11.5211 2.09612 11.0728 1.64935 10.8331C0.0725786 9.9806 -0.467531 8.09382 0.440948 6.62516L1.28471 5.33604C2.18199 3.8836 4.21052 3.37165 5.79227 4.21717C6.00756 4.33647 6.24153 4.3967 6.47923 4.39902C7.25454 4.39902 7.90293 3.80368 7.91537 3.07167C7.91039 2.26437 8.25263 1.4895 8.87612 0.90459C9.5021 0.320834 10.3334 0 11.2183 0H12.7776C13.6687 0 14.5348 0.340524 15.1558 0.932387C15.7756 1.52773 16.1178 2.34429 16.0917 3.17243C16.0942 3.35891 16.1601 3.57434 16.2796 3.76314C16.4775 4.07586 16.7898 4.29593 17.1607 4.38627C17.5316 4.47198 17.9198 4.42565 18.2496 4.24381C19.8426 3.39713 21.8699 3.90444 22.7796 5.37542L23.5549 6.62516C23.5748 6.65875 23.5922 6.69118 23.6072 6.72477C24.431 8.17374 23.881 9.99797 22.3502 10.8308C22.1275 10.95 21.947 11.1168 21.8226 11.3184C21.6297 11.6299 21.5762 12.0006 21.6732 12.3411C21.7728 12.6886 22.0105 12.977 22.3453 13.1553C23.1007 13.5596 23.6644 14.2406 23.8897 15.0271C24.1149 15.8124 23.9917 16.6648 23.5524 17.3679L22.7261 18.6489C21.8164 20.1037 19.7891 20.6075 18.2123 19.7597C18.002 19.6473 17.7593 19.5859 17.5179 19.5801H17.5104C17.1507 19.5801 16.7811 19.7226 16.5123 19.9716C16.2398 20.2253 16.0904 20.5635 16.0929 20.9225C16.0842 22.624 14.5971 24 12.7776 24" fill="#5E84E7"/>
<path fill-rule="evenodd" clip-rule="evenodd" d="M12.0567 10.3466C10.7567 10.3466 9.69922 11.3808 9.69922 12.6506C9.69922 13.9204 10.7567 14.9521 12.0567 14.9521C13.3567 14.9521 14.4142 13.9204 14.4142 12.6506C14.4142 11.3808 13.3567 10.3466 12.0567 10.3466ZM12.0567 16.7836C9.72297 16.7836 7.82422 14.9301 7.82422 12.6506C7.82422 10.371 9.72297 8.51514 12.0567 8.51514C14.3905 8.51514 16.2892 10.371 16.2892 12.6506C16.2892 14.9301 14.3905 16.7836 12.0567 16.7836Z" fill="#5E84E7"/>
</svg>
