<svg width="40" height="40" viewBox="0 0 40 40" fill="none" xmlns="http://www.w3.org/2000/svg">
<path fill-rule="evenodd" clip-rule="evenodd" d="M10.4166 5.8335C5.83325 5.8335 5.83325 6.18016 5.83325 10.4168V10.4585C5.83325 12.3035 5.83325 13.6368 6.28492 14.2002C6.72659 14.7468 8.03825 15.0002 10.4166 15.0002C12.7949 15.0002 14.1066 14.7452 14.5483 14.1985C14.9999 13.6368 14.9999 12.3035 14.9999 10.4568C14.9999 6.18016 14.9999 5.8335 10.4166 5.8335ZM10.4166 17.5002C7.60659 17.5002 5.49825 17.2052 4.33992 15.7668C3.33325 14.5185 3.33325 12.8152 3.33325 10.4585L4.58325 10.4168H3.33325C3.33325 5.6335 3.63492 3.3335 10.4166 3.3335C17.1983 3.3335 17.4999 5.6335 17.4999 10.4168C17.4999 12.8135 17.4999 14.5185 16.4933 15.7668C15.3349 17.2052 13.2266 17.5002 10.4166 17.5002Z" fill="#AAAAAA"/>
<path fill-rule="evenodd" clip-rule="evenodd" d="M28.7498 5.8335C24.1665 5.8335 24.1665 6.18016 24.1665 10.4168V10.4585C24.1665 12.3035 24.1665 13.6368 24.6182 14.2002C25.0598 14.7468 26.3715 15.0002 28.7498 15.0002C31.1282 15.0002 32.4398 14.7452 32.8815 14.1985C33.3332 13.6368 33.3332 12.3035 33.3332 10.4568C33.3332 6.18016 33.3332 5.8335 28.7498 5.8335ZM28.7498 17.5002C25.9398 17.5002 23.8315 17.2052 22.6732 15.7668C21.6665 14.5185 21.6665 12.8152 21.6665 10.4585L22.9165 10.4168H21.6665C21.6665 5.6335 21.9682 3.3335 28.7498 3.3335C35.5315 3.3335 35.8332 5.6335 35.8332 10.4168C35.8332 12.8135 35.8332 14.5185 34.8265 15.7668C33.6682 17.2052 31.5598 17.5002 28.7498 17.5002Z" fill="#AAAAAA"/>
<path fill-rule="evenodd" clip-rule="evenodd" d="M10.4166 24.167C5.83325 24.167 5.83325 24.5137 5.83325 28.7503V28.792C5.83325 30.637 5.83325 31.9703 6.28492 32.5337C6.72659 33.0803 8.03825 33.3337 10.4166 33.3337C12.7949 33.3337 14.1066 33.0787 14.5483 32.532C14.9999 31.9703 14.9999 30.637 14.9999 28.7903C14.9999 24.5137 14.9999 24.167 10.4166 24.167ZM10.4166 35.8337C7.60659 35.8337 5.49825 35.5387 4.33992 34.1003C3.33325 32.852 3.33325 31.1487 3.33325 28.792L4.58325 28.7503H3.33325C3.33325 23.967 3.63492 21.667 10.4166 21.667C17.1983 21.667 17.4999 23.967 17.4999 28.7503C17.4999 31.147 17.4999 32.852 16.4933 34.1003C15.3349 35.5387 13.2266 35.8337 10.4166 35.8337Z" fill="#AAAAAA"/>
<path fill-rule="evenodd" clip-rule="evenodd" d="M28.7498 24.167C24.1665 24.167 24.1665 24.5137 24.1665 28.7503V28.792C24.1665 30.637 24.1665 31.9703 24.6182 32.5337C25.0598 33.0803 26.3715 33.3337 28.7498 33.3337C31.1282 33.3337 32.4398 33.0787 32.8815 32.532C33.3332 31.9703 33.3332 30.637 33.3332 28.7903C33.3332 24.5137 33.3332 24.167 28.7498 24.167ZM28.7498 35.8337C25.9398 35.8337 23.8315 35.5387 22.6732 34.1003C21.6665 32.852 21.6665 31.1487 21.6665 28.792L22.9165 28.7503H21.6665C21.6665 23.967 21.9682 21.667 28.7498 21.667C35.5315 21.667 35.8332 23.967 35.8332 28.7503C35.8332 31.147 35.8332 32.852 34.8265 34.1003C33.6682 35.5387 31.5598 35.8337 28.7498 35.8337Z" fill="#AAAAAA"/>
</svg>
