<svg width="274" height="47" viewBox="0 0 274 47" fill="none" xmlns="http://www.w3.org/2000/svg">
<mask id="path-1-inside-1_95_11610" fill="white">
<path fill-rule="evenodd" clip-rule="evenodd" d="M14.5 0C6.49187 0 0 6.49187 0 14.5C0 22.5081 6.49187 29 14.5 29H31.7646L38 47L44.2354 29H259.5C267.508 29 274 22.5081 274 14.5C274 6.49187 267.508 0 259.5 0H14.5Z"/>
</mask>
<path fill-rule="evenodd" clip-rule="evenodd" d="M14.5 0C6.49187 0 0 6.49187 0 14.5C0 22.5081 6.49187 29 14.5 29H31.7646L38 47L44.2354 29H259.5C267.508 29 274 22.5081 274 14.5C274 6.49187 267.508 0 259.5 0H14.5Z" fill="white"/>
<path d="M31.7646 29L32.7095 28.6727L32.4765 28H31.7646V29ZM38 47L37.0551 47.3273L38 50.055L38.9449 47.3273L38 47ZM44.2354 29V28H43.5235L43.2905 28.6727L44.2354 29ZM1 14.5C1 7.04416 7.04416 1 14.5 1V-1C5.93959 -1 -1 5.93959 -1 14.5H1ZM14.5 28C7.04415 28 1 21.9558 1 14.5H-1C-1 23.0604 5.93958 30 14.5 30V28ZM31.7646 28H14.5V30H31.7646V28ZM38.9449 46.6727L32.7095 28.6727L30.8197 29.3273L37.0551 47.3273L38.9449 46.6727ZM43.2905 28.6727L37.0551 46.6727L38.9449 47.3273L45.1803 29.3273L43.2905 28.6727ZM259.5 28H44.2354V30H259.5V28ZM273 14.5C273 21.9558 266.956 28 259.5 28V30C268.06 30 275 23.0604 275 14.5H273ZM259.5 1C266.956 1 273 7.04416 273 14.5H275C275 5.93959 268.06 -1 259.5 -1V1ZM14.5 1H259.5V-1H14.5V1Z" fill="#D7E0F9" mask="url(#path-1-inside-1_95_11610)"/>
<path d="M31.7646 29L32.7095 28.6727L32.4765 28H31.7646V29ZM38 47L37.0551 47.3273L38 50.055L38.9449 47.3273L38 47ZM44.2354 29V28H43.5235L43.2905 28.6727L44.2354 29ZM1 14.5C1 7.04416 7.04416 1 14.5 1V-1C5.93959 -1 -1 5.93959 -1 14.5H1ZM14.5 28C7.04415 28 1 21.9558 1 14.5H-1C-1 23.0604 5.93958 30 14.5 30V28ZM31.7646 28H14.5V30H31.7646V28ZM38.9449 46.6727L32.7095 28.6727L30.8197 29.3273L37.0551 47.3273L38.9449 46.6727ZM43.2905 28.6727L37.0551 46.6727L38.9449 47.3273L45.1803 29.3273L43.2905 28.6727ZM259.5 28H44.2354V30H259.5V28ZM273 14.5C273 21.9558 266.956 28 259.5 28V30C268.06 30 275 23.0604 275 14.5H273ZM259.5 1C266.956 1 273 7.04416 273 14.5H275C275 5.93959 268.06 -1 259.5 -1V1ZM14.5 1H259.5V-1H14.5V1Z" fill="#ACB3C7" mask="url(#path-1-inside-1_95_11610)"/>
</svg>
